<?xml version="1.0" encoding="UTF-8" standalone="no"?>
<!-- Created with Inkscape (http://www.inkscape.org/) -->

<svg
   width="297mm"
   height="210mm"
   viewBox="0 0 297 210"
   version="1.1"
   id="svg5"
   inkscape:version="1.2.2 (b0a8486, 2022-12-01)"
   sodipodi:docname="kayak.svg"
   xmlns:inkscape="http://www.inkscape.org/namespaces/inkscape"
   xmlns:sodipodi="http://sodipodi.sourceforge.net/DTD/sodipodi-0.dtd"
   xmlns="http://www.w3.org/2000/svg"
   xmlns:svg="http://www.w3.org/2000/svg">
  <sodipodi:namedview
     id="namedview7"
     pagecolor="#ffffff"
     bordercolor="#000000"
     borderopacity="0.25"
     inkscape:showpageshadow="2"
     inkscape:pageopacity="0.0"
     inkscape:pagecheckerboard="0"
     inkscape:deskcolor="#d1d1d1"
     inkscape:document-units="mm"
     showgrid="false"
     inkscape:zoom="0.64319585"
     inkscape:cx="606.3472"
     inkscape:cy="517.72722"
     inkscape:window-width="1451"
     inkscape:window-height="942"
     inkscape:window-x="173"
     inkscape:window-y="1080"
     inkscape:window-maximized="0"
     inkscape:current-layer="layer1" />
  <defs
     id="defs2" />
  <g
     inkscape:label="Layer 1"
     inkscape:groupmode="layer"
     id="layer1">
    <rect
       style="fill:#000000;stroke-width:0.191938"
       id="rect111"
       width="52.633114"
       height="187.47368"
       x="4.4708333"
       y="8.9570618"
       rx="26.316557"
       ry="149.97894" />
    <rect
       style="fill:#000000;stroke-width:0.206174"
       id="rect113"
       width="4.0761495"
       height="32.086597"
       x="39.255348"
       y="61.932671"
       rx="30.365257"
       ry="32.086597" />
    <ellipse
       style="fill:#000000;stroke-width:0.206174"
       id="path275"
       cx="33.65065"
       cy="101.09721"
       rx="12.737967"
       ry="10.852819" />
    <path
       style="fill:#2c5aa0;stroke-width:0.980658"
       d="M 25.220519,193.31068 C 9.2632597,179.50604 0.86654083,119.74239 7.2924497,65.707568 11.086959,33.799918 19.576729,12.452988 29.577909,9.6723309 c 5.21305,-1.449399 11.5978,5.6368731 16.29354,18.0837871 17.82782,47.25587 11.88005,148.885662 -9.6974,165.700012 -4.08683,3.1847 -7.15114,3.144 -10.95353,-0.14545 z"
       id="path415" />
    <ellipse
       style="fill:#000000;stroke-width:0.226867"
       id="path538"
       cx="30.787392"
       cy="100.81918"
       rx="18.219154"
       ry="16.872631" />
    <path
       style="fill:#ffdd55;stroke:#000000;stroke-width:0.264172;stroke-dasharray:none;stroke-opacity:1"
       id="path10958"
       sodipodi:type="arc"
       sodipodi:cx="179.44478"
       sodipodi:cy="75.920387"
       sodipodi:rx="15.216538"
       sodipodi:ry="10.45013"
       sodipodi:start="5.2616151"
       sodipodi:end="5.2302774"
       sodipodi:arc-type="arc"
       d="m 187.38823,67.00717 a 15.216538,10.45013 0 0 1 5.09701,14.298474 15.216538,10.45013 0 0 1 -20.77958,3.61234 15.216538,10.45013 0 0 1 -5.4226,-14.241873 15.216538,10.45013 0 0 1 20.69461,-3.835491"
       sodipodi:open="true"
       transform="matrix(0.81643919,0.57743142,-0.56972196,0.82183751,0,0)" />
    <path
       style="fill:#000000;stroke:#000000;stroke-width:3.11466;stroke-dasharray:none;stroke-opacity:1"
       d="m 114.55346,176.11768 c -110.0337297,-97.18787 -110.0337297,-95.765603 0,0 z"
       id="path714-8" />
    <path
       style="fill:#ffdd55;stroke:#000000;stroke-width:0.264172;stroke-dasharray:none;stroke-opacity:1"
       id="path10958-1"
       sodipodi:type="arc"
       sodipodi:cx="63.019245"
       sodipodi:cy="-91.185249"
       sodipodi:rx="15.216538"
       sodipodi:ry="10.45013"
       sodipodi:start="5.2616151"
       sodipodi:end="5.2302774"
       sodipodi:arc-type="arc"
       d="m 70.962694,-100.09847 a 15.216538,10.45013 0 0 1 5.097008,14.298478 15.216538,10.45013 0 0 1 -20.779579,3.612339 15.216538,10.45013 0 0 1 -5.422596,-14.241873 15.216538,10.45013 0 0 1 20.694613,-3.835494"
       sodipodi:open="true"
       transform="matrix(0.81643919,-0.57743142,-0.56972196,-0.82183751,0,0)" />
    <path
       style="fill:#000000;stroke:#000000;stroke-width:3.11466;stroke-dasharray:none;stroke-opacity:1"
       d="m 114.55345,28.443766 c -110.0337163,97.187874 -110.0337163,95.765614 0,0 z"
       id="path714-8-5" />
    <path
       style="fill:none;stroke:#000000;stroke-width:0.779243;stroke-dasharray:none;stroke-opacity:1"
       d="m 14.205659,32.779208 33.64235,-0.61695 -39.3049193,28.37967 H 53.177499 Z"
       id="path3928" />
    <path
       style="fill:none;stroke:#000000;stroke-width:0.779243;stroke-dasharray:none;stroke-opacity:1"
       d="m 14.103959,171.40501 33.64235,0.61695 L 8.4413897,143.64228 H 53.075799 Z"
       id="path3928-6" />
    <text
       xml:space="preserve"
       style="font-style:normal;font-variant:normal;font-weight:normal;font-stretch:normal;font-size:71.4739px;font-family:'Heiti SC';-inkscape-font-specification:'Heiti SC';fill:#666666;stroke:none;stroke-width:0.194811;stroke-dasharray:none;stroke-opacity:1"
       x="113.37804"
       y="188.60385"
       id="text7102"
       transform="scale(1.0391367,0.96233729)"><tspan
         sodipodi:role="line"
         id="tspan7100"
         style="font-style:normal;font-variant:normal;font-weight:normal;font-stretch:normal;font-size:71.4739px;font-family:'Heiti SC';-inkscape-font-specification:'Heiti SC';fill:#666666;stroke:none;stroke-width:0.194811"
         x="113.37804"
         y="188.60385">ayak</tspan></text>
  </g>
</svg>
